<svg xmlns="http://www.w3.org/2000/svg" version="1.1" xmlns:xlink="http://www.w3.org/1999/xlink" xmlns:svgjs="http://svgjs.dev/svgjs" viewBox="0 0 800 800" opacity="1"><defs><linearGradient x1="50%" y1="0%" x2="50%" y2="100%" id="vvvortex-grad"><stop stop-color="hsl(205, 69%, 60%)" stop-opacity="1" offset="0%"></stop><stop stop-color="hsl(205, 69%, 80%)" stop-opacity="1" offset="100%"></stop></linearGradient></defs><g stroke="url(#vvvortex-grad)" fill="none" stroke-linecap="square"><circle r="407" cx="400" cy="400" stroke-width="13" stroke-dasharray="27 39" stroke-dashoffset="25" transform="rotate(210, 400, 400)" opacity="0.12"></circle><circle r="388.5" cx="400" cy="400" stroke-width="12" stroke-dasharray="30 54" stroke-dashoffset="25" transform="rotate(288, 400, 400)" opacity="0.74"></circle><circle r="370" cx="400" cy="400" stroke-width="12" stroke-dasharray="21 46" stroke-dashoffset="25" transform="rotate(178, 400, 400)" opacity="0.61"></circle><circle r="351.5" cx="400" cy="400" stroke-width="12" stroke-dasharray="26 44" stroke-dashoffset="25" transform="rotate(9, 400, 400)" opacity="0.60"></circle><circle r="333" cx="400" cy="400" stroke-width="11" stroke-dasharray="10 37" stroke-dashoffset="25" transform="rotate(101, 400, 400)" opacity="0.78"></circle><circle r="314.5" cx="400" cy="400" stroke-width="11" stroke-dasharray="51 21" stroke-dashoffset="25" transform="rotate(230, 400, 400)" opacity="0.27"></circle><circle r="296" cx="400" cy="400" stroke-width="11" stroke-dasharray="35 51" stroke-dashoffset="25" transform="rotate(235, 400, 400)" opacity="0.09"></circle><circle r="277.5" cx="400" cy="400" stroke-width="11" stroke-dasharray="43 19" stroke-dashoffset="25" transform="rotate(298, 400, 400)" opacity="0.45"></circle><circle r="259" cx="400" cy="400" stroke-width="10" stroke-dasharray="29 39" stroke-dashoffset="25" transform="rotate(252, 400, 400)" opacity="0.19"></circle><circle r="240.5" cx="400" cy="400" stroke-width="10" stroke-dasharray="31 36" stroke-dashoffset="25" transform="rotate(118, 400, 400)" opacity="0.67"></circle><circle r="222" cx="400" cy="400" stroke-width="10" stroke-dasharray="27 29" stroke-dashoffset="25" transform="rotate(157, 400, 400)" opacity="0.62"></circle><circle r="203.5" cx="400" cy="400" stroke-width="9" stroke-dasharray="44 54" stroke-dashoffset="25" transform="rotate(338, 400, 400)" opacity="0.52"></circle><circle r="185" cx="400" cy="400" stroke-width="9" stroke-dasharray="21 29" stroke-dashoffset="25" transform="rotate(128, 400, 400)" opacity="0.98"></circle><circle r="166.5" cx="400" cy="400" stroke-width="9" stroke-dasharray="43 49" stroke-dashoffset="25" transform="rotate(226, 400, 400)" opacity="0.83"></circle><circle r="148" cx="400" cy="400" stroke-width="9" stroke-dasharray="10 43" stroke-dashoffset="25" transform="rotate(283, 400, 400)" opacity="0.17"></circle><circle r="129.5" cx="400" cy="400" stroke-width="8" stroke-dasharray="20 33" stroke-dashoffset="25" transform="rotate(246, 400, 400)" opacity="0.42"></circle><circle r="111" cx="400" cy="400" stroke-width="8" stroke-dasharray="53 44" stroke-dashoffset="25" transform="rotate(75, 400, 400)" opacity="0.20"></circle><circle r="92.5" cx="400" cy="400" stroke-width="8" stroke-dasharray="33 14" stroke-dashoffset="25" transform="rotate(1, 400, 400)" opacity="0.85"></circle><circle r="74" cx="400" cy="400" stroke-width="7" stroke-dasharray="11 15" stroke-dashoffset="25" transform="rotate(326, 400, 400)" opacity="0.51"></circle><circle r="55.5" cx="400" cy="400" stroke-width="7" stroke-dasharray="21 18" stroke-dashoffset="25" transform="rotate(127, 400, 400)" opacity="0.48"></circle><circle r="37" cx="400" cy="400" stroke-width="7" stroke-dasharray="27 27" stroke-dashoffset="25" transform="rotate(247, 400, 400)" opacity="0.64"></circle><circle r="18.5" cx="400" cy="400" stroke-width="7" stroke-dasharray="15 22" stroke-dashoffset="25" transform="rotate(134, 400, 400)" opacity="0.50"></circle></g></svg>